<?xml version="1.0" encoding="UTF-8"?>
<svg xmlns="http://www.w3.org/2000/svg" data-v-423bf9ae="" viewBox="0 0 121.61648251507647 60" class="font">
  <defs data-v-423bf9ae="">
    <linearGradient data-v-423bf9ae="" gradientTransform="rotate(25)" id="dfa88f7d-1ce5-480f-bb10-cd6fff950b2a" x1="0%" y1="0%" x2="100%" y2="0%">
      <stop data-v-423bf9ae="" offset="0%" style="stop-color: rgb(54, 22, 172); stop-opacity: 1;"></stop>
      <stop data-v-423bf9ae="" offset="100%" style="stop-color: rgb(224, 155, 237); stop-opacity: 1;"></stop>
    </linearGradient>
  </defs>
  <g data-v-423bf9ae="" id="5790da1b-1d10-4caf-92b9-001c9db59d82" fill="url(#dfa88f7d-1ce5-480f-bb10-cd6fff950b2a)" transform="matrix(4.754358204761736,0,0,4.754358204761736,-5.990492851786897,-5.182250244256245)">
    <path d="M1.26 10.50L6.72 10.50L6.72 10.07L1.76 10.07L1.76 5.87L6.13 5.87L6.13 5.45L1.76 5.45L1.76 1.53L6.51 1.53L6.51 1.09L1.26 1.09ZM11.93 3.71L11.93 3.22L11.70 3.22C10.65 3.22 9.83 4.00 9.59 4.98C9.60 4.30 9.58 3.77 9.56 3.28L9.10 3.28C9.11 3.79 9.13 4.51 9.13 5.03L9.13 10.50L9.62 10.50L9.62 6.06C9.62 5.01 10.33 3.71 11.66 3.71ZM15.83 10.63C17.36 10.63 18.09 9.58 18.37 8.58L18.35 8.81L18.35 10.82C18.35 12.54 17.50 13.30 15.93 13.30C14.70 13.30 14.07 12.80 13.85 12.03L13.37 12.11C13.58 12.96 14.31 13.71 15.95 13.71C17.84 13.71 18.83 12.80 18.83 10.82L18.83 4.63L18.87 3.28L18.38 3.28L18.35 4.93C18.05 3.74 17.16 3.14 15.88 3.14C13.97 3.14 13.12 4.42 13.12 6.83C13.12 9.38 13.90 10.63 15.83 10.63ZM18.35 6.76C18.35 9.13 17.36 10.21 15.96 10.21C14.31 10.21 13.61 9.20 13.61 6.82C13.61 4.55 14.39 3.54 15.95 3.54C17.63 3.54 18.35 4.68 18.35 6.76ZM26.31 6.82C26.31 9.32 25.34 10.23 23.80 10.23C22.33 10.23 21.29 9.32 21.29 6.83C21.29 4.51 22.25 3.54 23.81 3.54C25.47 3.54 26.31 4.48 26.31 6.82ZM26.84 6.82C26.84 4.26 25.80 3.14 23.81 3.14C21.92 3.14 20.78 4.26 20.78 6.83C20.78 9.62 22.05 10.64 23.81 10.64C25.58 10.64 26.84 9.69 26.84 6.82Z"></path>
  </g>
</svg>
